<svg width="30" height="30" viewBox="0 0 30 30" fill="none" xmlns="http://www.w3.org/2000/svg">
<g clip-path="url(#clip0_856_5335)">
<path d="M22.5 1.875C22.9973 1.875 23.4742 2.07254 23.8258 2.42417C24.1775 2.77581 24.375 3.25272 24.375 3.75V23.9156C24.375 23.9156 22.5 20.625 15 20.625C7.5 20.625 5.625 23.9156 5.625 23.9156V3.75C5.625 3.25272 5.82254 2.77581 6.17417 2.42417C6.52581 2.07254 7.00272 1.875 7.5 1.875H22.5ZM7.5 0C6.50544 0 5.55161 0.395088 4.84835 1.09835C4.14509 1.80161 3.75 2.75544 3.75 3.75V26.25C3.75 27.2446 4.14509 28.1984 4.84835 28.9016C5.55161 29.6049 6.50544 30 7.5 30H22.5C23.4946 30 24.4484 29.6049 25.1516 28.9016C25.8549 28.1984 26.25 27.2446 26.25 26.25V3.75C26.25 2.75544 25.8549 1.80161 25.1516 1.09835C24.4484 0.395088 23.4946 0 22.5 0L7.5 0Z" fill="#FFB43A"/>
<path d="M15 18.75C15.7387 18.75 16.4701 18.6045 17.1526 18.3218C17.8351 18.0391 18.4551 17.6248 18.9775 17.1025C19.4998 16.5801 19.9141 15.9601 20.1968 15.2776C20.4795 14.5951 20.625 13.8637 20.625 13.125C20.625 12.3863 20.4795 11.6549 20.1968 10.9724C19.9141 10.2899 19.4998 9.66985 18.9775 9.14752C18.4551 8.6252 17.8351 8.21086 17.1526 7.92818C16.4701 7.6455 15.7387 7.5 15 7.5C13.5082 7.5 12.0774 8.09263 11.0225 9.14752C9.96763 10.2024 9.375 11.6332 9.375 13.125C9.375 14.6168 9.96763 16.0476 11.0225 17.1025C12.0774 18.1574 13.5082 18.75 15 18.75Z" fill="#FFB43A"/>
</g>
<defs>
<clipPath id="clip0_856_5335">
<rect width="30" height="30" fill="white"/>
</clipPath>
</defs>
</svg>
