<svg width="34" height="36" viewBox="0 0 34 36" fill="none" xmlns="http://www.w3.org/2000/svg">
<path d="M17.0937 21C17.7237 21 18.0387 20.55 18.1324 19.8244C18.2074 18.8231 18.5037 18.2962 19.7205 17.4619C20.9824 16.5712 21.6874 15.4181 21.6874 13.7381C21.6874 11.2538 19.9624 9.5625 17.4462 9.5625C15.5337 9.5625 14.0862 10.485 13.5087 11.9812C13.3337 12.3899 13.2455 12.8305 13.2499 13.275C13.2499 14.0119 13.6305 14.475 14.2718 14.475C14.7818 14.475 15.1249 14.1994 15.3293 13.5188C15.6255 12.4088 16.3137 11.8031 17.343 11.8031C18.4868 11.8031 19.2743 12.6394 19.2743 13.8356C19.2743 14.8912 18.8843 15.495 17.733 16.32C16.5724 17.1319 15.9968 18.0338 15.9968 19.395V19.6031C15.9968 20.4056 16.3868 21 17.0937 21Z" fill="#4E4E4E"/>
<path d="M21.2195 7.81161L21.1895 7.78093L19.4635 6.01185L19.4627 6.01098C19.1419 5.68261 18.7588 5.42169 18.3357 5.24354C17.9127 5.06539 17.4583 4.97362 16.9992 4.97362C16.5402 4.97362 16.0858 5.06539 15.6627 5.24354C15.2397 5.42167 14.8566 5.68257 14.5358 6.01089L21.2195 7.81161ZM21.2195 7.81161L21.2623 7.81109M21.2195 7.81161L21.2623 7.81109M10.263 7.78109C10.263 7.78109 10.2631 7.78109 10.2631 7.78109L12.738 7.81109L12.7809 7.81161L12.8108 7.78089L14.5358 6.01098L6.94255 9.8881C7.12064 9.45078 7.38434 9.05345 7.71814 8.71947C8.05195 8.38549 8.44913 8.12159 8.88637 7.94327C9.3236 7.76496 9.79206 7.67582 10.2642 7.6811L10.263 7.78109ZM10.263 7.78109C9.8042 7.77597 9.34899 7.8626 8.92413 8.03587C8.49923 8.20916 8.11326 8.46561 7.78887 8.79017C7.46448 9.11472 7.20823 9.50083 7.03517 9.92582C6.86211 10.3508 6.77573 10.8061 6.78109 11.2649C6.78109 11.2649 6.78109 11.2649 6.78109 11.2649M10.263 7.78109L6.78109 11.2649M6.78109 11.2649L6.81109 13.7361L6.81161 13.779L6.78093 13.8089L5.01098 15.5358L6.78109 11.2649ZM21.2623 7.81109L23.7335 7.78109C23.7335 7.78109 23.7335 7.78109 23.7336 7.78109C24.1924 7.77573 24.6477 7.86211 25.0726 8.03517C25.4976 8.20823 25.8837 8.46448 26.2083 8.78887C26.5328 9.11326 26.7893 9.49923 26.9626 9.92413C27.1359 10.349 27.2225 10.8043 27.2174 11.2631L27.1874 13.738L27.1868 13.7809L27.2176 13.8108L28.9875 15.5358C29.3158 15.8565 29.5768 16.2397 29.7549 16.6627C29.9331 17.0858 30.0248 17.5402 30.0248 17.9992C30.0248 18.4583 29.9331 18.9127 29.7549 19.3357C29.5768 19.7588 29.3158 20.1419 28.9875 20.4627L27.2175 22.1895L27.1868 22.2195L27.1874 22.2623L27.2174 24.7335C27.2174 24.7335 27.2174 24.7335 27.2174 24.7336C27.2227 25.1924 27.1363 25.6477 26.9633 26.0726C26.7902 26.4976 26.534 26.8837 26.2096 27.2083C25.8852 27.5328 25.4992 27.7893 25.0743 27.9626C24.6494 28.1359 24.1942 28.2225 23.7353 28.2174L21.2604 28.1874L21.2175 28.1868M21.2623 7.81109L21.2175 28.1868M20.9464 4.56246L20.9464 4.56249L20.948 4.56415L21.0163 4.63402L21.0163 4.63404L22.0827 5.7262L23.7086 5.70611L23.7087 5.70611C24.4443 5.6974 25.1743 5.83588 25.8557 6.1134C26.5371 6.39092 27.1561 6.80189 27.6763 7.32212C28.1966 7.84236 28.6075 8.46137 28.885 9.14274C29.1626 9.82412 29.3011 10.5541 29.2923 11.2898M20.9464 4.56246L29.2923 11.2898M20.9464 4.56246L20.8765 4.49095L20.8759 4.4916C20.3766 3.99883 19.7877 3.60553 19.1406 3.3331C18.4627 3.04773 17.7347 2.90073 16.9992 2.90073C16.2638 2.90073 15.5357 3.04773 14.8579 3.3331C14.18 3.61847 13.5661 4.03644 13.0521 4.56246L11.9157 5.72438L10.2898 5.70611C10.2898 5.70611 10.2897 5.7061 10.2897 5.7061C9.55407 5.69741 8.8241 5.83589 8.14274 6.1134C7.46137 6.39092 6.84236 6.80189 6.32212 7.32212C5.80189 7.84236 5.39092 8.46137 5.1134 9.14274C4.83588 9.82412 4.6974 10.5541 4.70611 11.2898L4.70611 11.2898L4.7262 12.9157L3.56249 14.0521L3.56246 14.0521C3.03644 14.5661 2.61847 15.18 2.3331 15.8579C2.04773 16.5357 1.90073 17.2638 1.90073 17.9992C1.90073 18.7347 2.04773 19.4627 2.3331 20.1406C2.61846 20.8184 3.03642 21.4323 3.56243 21.9463C3.56244 21.9464 3.56245 21.9464 3.56246 21.9464L4.72438 23.0827L4.70611 24.7087C4.70611 24.7087 4.7061 24.7087 4.7061 24.7087C4.69741 25.4444 4.83589 26.1743 5.1134 26.8557C5.39092 27.5371 5.80189 28.1561 6.32212 28.6763C6.84236 29.1966 7.46137 29.6075 8.14274 29.885C8.82412 30.1626 9.55411 30.3011 10.2898 30.2923H10.2898L11.9157 30.2722L13.0521 31.436L13.0521 31.436C13.5661 31.962 14.18 32.38 14.8579 32.6653C15.5357 32.9507 16.2638 33.0977 16.9992 33.0977C17.7347 33.0977 18.4627 32.9507 19.1406 32.6653C19.8184 32.38 20.4323 31.962 20.9463 31.436C20.9464 31.436 20.9464 31.436 20.9464 31.436L22.0827 30.2741M20.9464 4.56246L22.0827 30.2741M29.2923 11.2898L29.2741 12.9157M29.2923 11.2898L29.2741 12.9157M29.2741 12.9157L30.436 14.0521C30.436 14.0521 30.436 14.0521 30.436 14.0521C30.962 14.5661 31.38 15.1801 31.6653 15.8579C31.9507 16.5357 32.0977 17.2638 32.0977 17.9992C32.0977 18.7347 31.9507 19.4627 31.6653 20.1406C31.38 20.8184 30.962 21.4324 30.436 21.9464L30.436 21.9464L29.2722 23.0827L29.2923 24.7086V24.7087C29.3011 25.4443 29.1626 26.1743 28.885 26.8557C28.6075 27.5371 28.1966 28.1561 27.6763 28.6763C27.1561 29.1966 26.5371 29.6075 25.8557 29.885C25.1743 30.1626 24.4443 30.3011 23.7087 30.2923M29.2741 12.9157L23.7087 30.2923M23.7087 30.2923L22.0827 30.2741M23.7087 30.2923L22.0827 30.2741M6.81161 22.2175L6.81109 22.2604L6.78109 24.7353C6.78109 24.7354 6.78109 24.7354 6.78109 24.7354M6.81161 22.2175L6.78109 24.7354M6.81161 22.2175L6.78089 22.1876M6.81161 22.2175L6.78089 22.1876M6.78109 24.7354C6.77597 25.1942 6.8626 25.6495 7.03587 26.0743C7.20916 26.4992 7.46561 26.8852 7.79017 27.2096C8.11472 27.534 8.50083 27.7902 8.92582 27.9633C9.35079 28.1363 9.80606 28.2227 10.2649 28.2174M6.78109 24.7354L10.2649 28.2174M10.2649 28.2174C10.2649 28.2174 10.2649 28.2174 10.2649 28.2174L12.7361 28.1874L12.779 28.1868L12.8089 28.2175L14.5358 29.9875L10.2649 28.2174ZM6.78089 22.1876L5.01098 20.4627C4.68261 20.1419 4.42169 19.7588 4.24354 19.3357C4.06539 18.9127 3.97362 18.4583 3.97362 17.9992C3.97362 17.5402 4.06539 17.0858 4.24354 16.6627C4.42168 16.2397 4.68259 15.8566 5.01093 15.5358L6.78089 22.1876ZM21.2175 28.1868L21.1876 28.2176M21.2175 28.1868L21.1876 28.2176M21.1876 28.2176L19.4627 29.9875C19.1419 30.3158 18.7588 30.5768 18.3357 30.7549C17.9127 30.9331 17.4583 31.0248 16.9992 31.0248C16.5402 31.0248 16.0858 30.9331 15.6627 30.7549C15.2397 30.5768 14.8566 30.3159 14.5358 29.9875L21.1876 28.2176Z" fill="#4E4E4E" stroke="#4E4E4E" stroke-width="0.2"/>
<path d="M15.1268 23.625C15.1268 23.1277 15.3244 22.6508 15.676 22.2992C16.0276 21.9475 16.5046 21.75 17.0018 21.75C17.4991 21.75 17.976 21.9475 18.3277 22.2992C18.6793 22.6508 18.8768 23.1277 18.8768 23.625C18.8768 24.1223 18.6793 24.5992 18.3277 24.9508C17.976 25.3025 17.4991 25.5 17.0018 25.5C16.5046 25.5 16.0276 25.3025 15.676 24.9508C15.3244 24.5992 15.1268 24.1223 15.1268 23.625Z" fill="#4E4E4E"/>
</svg>
