<svg width="24" height="30" viewBox="0 0 24 30" fill="none" xmlns="http://www.w3.org/2000/svg">
<path d="M0.750007 11.2499C0.749948 9.39214 1.20994 7.56331 2.08891 5.92668C2.96787 4.29005 4.23846 2.89655 5.78721 1.87062C7.33595 0.844695 9.11466 0.218267 10.9645 0.0472725C12.8143 -0.123722 14.6777 0.16604 16.3883 0.890686C18.0989 1.61533 19.6034 2.7523 20.7674 4.20008C21.9315 5.64786 22.719 7.36138 23.0594 9.18764C23.3999 11.0139 23.2829 12.8961 22.7187 14.666C22.1545 16.436 21.1608 18.0388 19.8263 19.3311C19.4456 19.6986 19.1531 20.0811 18.9769 20.4917L17.5481 23.8086C17.4756 23.9767 17.3555 24.1199 17.2026 24.2206C17.0496 24.3212 16.8706 24.3748 16.6875 24.3749C16.9361 24.3749 17.1746 24.4736 17.3504 24.6495C17.5262 24.8253 17.625 25.0637 17.625 25.3124C17.625 25.561 17.5262 25.7995 17.3504 25.9753C17.1746 26.1511 16.9361 26.2499 16.6875 26.2499C16.9361 26.2499 17.1746 26.3486 17.3504 26.5245C17.5262 26.7003 17.625 26.9387 17.625 27.1874C17.625 27.436 17.5262 27.6745 17.3504 27.8503C17.1746 28.0261 16.9361 28.1249 16.6875 28.1249L16.2675 28.963C16.1119 29.2744 15.8727 29.5363 15.5766 29.7195C15.2806 29.9026 14.9394 29.9997 14.5913 29.9999H9.40876C9.06064 29.9997 8.71945 29.9026 8.4234 29.7195C8.12734 29.5363 7.88811 29.2744 7.73251 28.963L7.31251 28.1249C7.06387 28.1249 6.82541 28.0261 6.64959 27.8503C6.47378 27.6745 6.37501 27.436 6.37501 27.1874C6.37501 26.9387 6.47378 26.7003 6.64959 26.5245C6.82541 26.3486 7.06387 26.2499 7.31251 26.2499C7.06387 26.2499 6.82541 26.1511 6.64959 25.9753C6.47378 25.7995 6.37501 25.561 6.37501 25.3124C6.37501 25.0637 6.47378 24.8253 6.64959 24.6495C6.82541 24.4736 7.06387 24.3749 7.31251 24.3749C7.12912 24.3752 6.94966 24.3217 6.79635 24.2211C6.64305 24.1204 6.52263 23.977 6.45001 23.8086L5.02313 20.4899C4.81883 20.0516 4.53021 19.6579 4.17376 19.3311C3.0893 18.2833 2.22719 17.0276 1.63893 15.6391C1.05068 14.2507 0.748346 12.7578 0.750007 11.2499ZM12 1.87487C10.1328 1.87455 8.30806 2.4318 6.7596 3.4752C5.21114 4.5186 4.00952 6.00062 3.30874 7.73132C2.60796 9.46202 2.43995 11.3626 2.82623 13.1894C3.21251 15.0162 4.13549 16.686 5.47688 17.9849C5.97001 18.4611 6.44063 19.0424 6.74438 19.7492L7.93126 22.4999H16.0725L17.2575 19.7492C17.5613 19.0424 18.0319 18.4611 18.525 17.9849C19.8665 16.6859 20.7895 15.0159 21.1758 13.1889C21.562 11.3619 21.3938 9.46123 20.6928 7.73045C19.9918 5.99967 18.7899 4.51767 17.2411 3.47442C15.6924 2.43116 13.8674 1.87418 12 1.87487Z" fill="#FFB43A"/>
</svg>
