<svg width="24" height="30" viewBox="0 0 24 30" fill="none" xmlns="http://www.w3.org/2000/svg">
<path d="M0.750007 11.2501C0.749948 9.39238 1.20994 7.56356 2.08891 5.92692C2.96787 4.29029 4.23846 2.8968 5.78721 1.87087C7.33595 0.844939 9.11466 0.218511 10.9645 0.0475166C12.8143 -0.123478 14.6777 0.166284 16.3883 0.89093C18.0989 1.61558 19.6034 2.75255 20.7674 4.20033C21.9315 5.64811 22.719 7.36163 23.0594 9.18789C23.3999 11.0141 23.2829 12.8963 22.7187 14.6663C22.1545 16.4363 21.1608 18.039 19.8263 19.3314C19.4456 19.6989 19.1531 20.0814 18.9769 20.492L17.5481 23.8089C17.4756 23.977 17.3555 24.1202 17.2026 24.2208C17.0496 24.3214 16.8706 24.3751 16.6875 24.3751C16.9361 24.3751 17.1746 24.4739 17.3504 24.6497C17.5262 24.8255 17.625 25.064 17.625 25.3126C17.625 25.5613 17.5262 25.7997 17.3504 25.9755C17.1746 26.1513 16.9361 26.2501 16.6875 26.2501C16.9361 26.2501 17.1746 26.3489 17.3504 26.5247C17.5262 26.7005 17.625 26.939 17.625 27.1876C17.625 27.4363 17.5262 27.6747 17.3504 27.8505C17.1746 28.0263 16.9361 28.1251 16.6875 28.1251L16.2675 28.9632C16.1119 29.2746 15.8727 29.5366 15.5766 29.7197C15.2806 29.9028 14.9394 29.9999 14.5913 30.0001H9.40876C9.06064 29.9999 8.71945 29.9028 8.4234 29.7197C8.12734 29.5366 7.88811 29.2746 7.73251 28.9632L7.31251 28.1251C7.06387 28.1251 6.82541 28.0263 6.64959 27.8505C6.47378 27.6747 6.37501 27.4363 6.37501 27.1876C6.37501 26.939 6.47378 26.7005 6.64959 26.5247C6.82541 26.3489 7.06387 26.2501 7.31251 26.2501C7.06387 26.2501 6.82541 26.1513 6.64959 25.9755C6.47378 25.7997 6.37501 25.5613 6.37501 25.3126C6.37501 25.064 6.47378 24.8255 6.64959 24.6497C6.82541 24.4739 7.06387 24.3751 7.31251 24.3751C7.12912 24.3754 6.94966 24.322 6.79635 24.2213C6.64305 24.1207 6.52263 23.9773 6.45001 23.8089L5.02313 20.4901C4.81883 20.0518 4.53021 19.6581 4.17376 19.3314C3.0893 18.2836 2.22719 17.0279 1.63893 15.6394C1.05068 14.2509 0.748346 12.7581 0.750007 11.2501ZM12 1.87511C10.1328 1.87479 8.30806 2.43205 6.7596 3.47545C5.21114 4.51885 4.00952 6.00086 3.30874 7.73156C2.60796 9.46226 2.43995 11.3628 2.82623 13.1896C3.21251 15.0164 4.13549 16.6862 5.47688 17.9851C5.97001 18.4614 6.44063 19.0426 6.74438 19.7495L7.93126 22.5001H16.0725L17.2575 19.7495C17.5613 19.0426 18.0319 18.4614 18.525 17.9851C19.8665 16.6861 20.7895 15.0161 21.1758 13.1891C21.562 11.3622 21.3938 9.46147 20.6928 7.73069C19.9918 5.99992 18.7899 4.51792 17.2411 3.47466C15.6924 2.4314 13.8674 1.87442 12 1.87511Z" fill="#4E4E4E"/>
</svg>
