<svg width="24" height="30" viewBox="0 0 24 30" fill="none" xmlns="http://www.w3.org/2000/svg">
<path d="M19.5 1.875C19.9973 1.875 20.4742 2.07254 20.8258 2.42417C21.1775 2.77581 21.375 3.25272 21.375 3.75V23.9156C21.375 23.9156 19.5 20.625 12 20.625C4.5 20.625 2.625 23.9156 2.625 23.9156V3.75C2.625 3.25272 2.82254 2.77581 3.17417 2.42417C3.52581 2.07254 4.00272 1.875 4.5 1.875H19.5ZM4.5 0C3.50544 0 2.55161 0.395088 1.84835 1.09835C1.14509 1.80161 0.75 2.75544 0.75 3.75V26.25C0.75 27.2446 1.14509 28.1984 1.84835 28.9016C2.55161 29.6049 3.50544 30 4.5 30H19.5C20.4946 30 21.4484 29.6049 22.1516 28.9016C22.8549 28.1984 23.25 27.2446 23.25 26.25V3.75C23.25 2.75544 22.8549 1.80161 22.1516 1.09835C21.4484 0.395088 20.4946 0 19.5 0L4.5 0Z" fill="#4E4E4E"/>
<path d="M12 18.75C12.7387 18.75 13.4701 18.6045 14.1526 18.3218C14.8351 18.0391 15.4551 17.6248 15.9775 17.1025C16.4998 16.5801 16.9141 15.9601 17.1968 15.2776C17.4795 14.5951 17.625 13.8637 17.625 13.125C17.625 12.3863 17.4795 11.6549 17.1968 10.9724C16.9141 10.2899 16.4998 9.66985 15.9775 9.14752C15.4551 8.6252 14.8351 8.21086 14.1526 7.92818C13.4701 7.6455 12.7387 7.5 12 7.5C10.5082 7.5 9.07742 8.09263 8.02252 9.14752C6.96763 10.2024 6.375 11.6332 6.375 13.125C6.375 14.6168 6.96763 16.0476 8.02252 17.1025C9.07742 18.1574 10.5082 18.75 12 18.75Z" fill="#4E4E4E"/>
</svg>
