<svg width="30" height="28" viewBox="0 0 30 28" fill="none" xmlns="http://www.w3.org/2000/svg">
<path d="M20.8987 23.69L19.6584 23.8449L19.6584 23.845L20.8987 23.69ZM20.0987 17.285L21.3391 17.1301L21.3391 17.13L20.0987 17.285ZM16.3762 14V15.25H16.3767L16.3762 14ZM13.6212 14V12.75H13.6209L13.6212 14ZM9.90124 17.285L11.1416 17.4402L11.1416 17.44L9.90124 17.285ZM9.09999 23.69L7.85965 23.5348L7.85963 23.535L9.09999 23.69ZM11.5825 26.5V25.25H11.5816L11.5825 26.5ZM18.4175 26.5L18.4178 25.25H18.4175V26.5ZM4.99999 17.75C5.69034 17.75 6.24999 17.1904 6.24999 16.5C6.24999 15.8096 5.69034 15.25 4.99999 15.25V17.75ZM4.61749 16.5L4.61733 17.75H4.61749V16.5ZM2.15124 18.5887L0.918264 18.3831L0.918209 18.3834L2.15124 18.5887ZM1.73499 21.0887L2.96796 21.2944L2.96801 21.294L1.73499 21.0887ZM4.20124 24V22.75H4.20108L4.20124 24ZM8.74999 25.25C9.44034 25.25 9.99998 24.6904 9.99998 24C9.99998 23.3096 9.44034 22.75 8.74999 22.75V25.25ZM25 15.25C24.3096 15.25 23.75 15.8096 23.75 16.5C23.75 17.1904 24.3096 17.75 25 17.75V15.25ZM25.3825 16.5V17.75H25.3826L25.3825 16.5ZM27.8487 18.5887L29.0818 18.3834L29.0817 18.3831L27.8487 18.5887ZM28.265 21.0887L27.032 21.294L27.032 21.2944L28.265 21.0887ZM25.7987 24L25.7989 22.75H25.7987V24ZM21.25 22.75C20.5596 22.75 20 23.3096 20 24C20 24.6904 20.5596 25.25 21.25 25.25V22.75ZM22.1391 23.5351L21.3391 17.1301L18.8584 17.4399L19.6584 23.8449L22.1391 23.5351ZM21.3391 17.13C21.1879 15.9204 20.6001 14.8076 19.686 14.001L18.0319 15.8755C18.4889 16.2788 18.7828 16.8352 18.8584 17.44L21.3391 17.13ZM19.686 14.001C18.772 13.1944 17.5948 12.7495 16.3758 12.75L16.3767 15.25C16.9862 15.2498 17.5748 15.4722 18.0319 15.8755L19.686 14.001ZM16.3762 12.75H13.6212V15.25H16.3762V12.75ZM13.6209 12.75C12.4024 12.7503 11.226 13.1956 10.3127 14.0021L11.9675 15.8761C12.4242 15.4728 13.0124 15.2502 13.6216 15.25L13.6209 12.75ZM10.3127 14.0021C9.39936 14.8087 8.81197 15.9209 8.66088 17.13L11.1416 17.44C11.2171 16.8355 11.5108 16.2793 11.9675 15.8761L10.3127 14.0021ZM8.6609 17.1298L7.85965 23.5348L10.3403 23.8452L11.1416 17.4402L8.6609 17.1298ZM7.85963 23.535C7.79367 24.0628 7.84076 24.5987 7.99778 25.1069L10.3864 24.369C10.334 24.1996 10.3184 24.0209 10.3403 23.845L7.85963 23.535ZM7.99778 25.1069C8.15479 25.6151 8.41814 26.0842 8.77033 26.4828L10.6439 24.8276C10.5265 24.6947 10.4387 24.5384 10.3864 24.369L7.99778 25.1069ZM8.77033 26.4828C9.12252 26.8815 9.5555 27.2006 10.0405 27.4191L11.0673 25.1397C10.9056 25.0669 10.7613 24.9605 10.6439 24.8276L8.77033 26.4828ZM10.0405 27.4191C10.5255 27.6376 11.0514 27.7504 11.5834 27.75L11.5816 25.25C11.4043 25.2501 11.229 25.2125 11.0673 25.1397L10.0405 27.4191ZM11.5825 27.75H18.4175V25.25H11.5825V27.75ZM18.4172 27.75C18.949 27.7501 19.4747 27.6371 19.9595 27.4185L18.9319 25.1395C18.7703 25.2124 18.595 25.25 18.4178 25.25L18.4172 27.75ZM19.9595 27.4185C20.4443 27.1999 20.877 26.8807 21.229 26.4821L19.355 24.8274C19.2377 24.9602 19.0934 25.0666 18.9319 25.1395L19.9595 27.4185ZM21.229 26.4821C21.581 26.0835 21.8442 25.6146 22.0011 25.1065L19.6124 24.3688C19.5601 24.5382 19.4724 24.6945 19.355 24.8274L21.229 26.4821ZM22.0011 25.1065C22.158 24.5983 22.205 24.0627 22.1391 23.535L19.6584 23.845C19.6804 24.0209 19.6647 24.1994 19.6124 24.3688L22.0011 25.1065ZM17.5 5.25C17.5 6.63071 16.3807 7.75 15 7.75V10.25C17.7614 10.25 20 8.01142 20 5.25H17.5ZM15 7.75C13.6193 7.75 12.5 6.63071 12.5 5.25H9.99998C9.99998 8.01142 12.2386 10.25 15 10.25V7.75ZM12.5 5.25C12.5 3.86929 13.6193 2.75 15 2.75V0.25C12.2386 0.25 9.99998 2.48858 9.99998 5.25H12.5ZM15 2.75C16.3807 2.75 17.5 3.86929 17.5 5.25H20C20 2.48858 17.7614 0.25 15 0.25V2.75ZM6.24999 10.25C6.24999 10.9404 5.69034 11.5 4.99999 11.5V14C7.07105 14 8.74999 12.3211 8.74999 10.25H6.24999ZM4.99999 11.5C4.30963 11.5 3.74999 10.9404 3.74999 10.25H1.24999C1.24999 12.3211 2.92892 14 4.99999 14V11.5ZM3.74999 10.25C3.74999 9.55964 4.30963 9 4.99999 9V6.5C2.92892 6.5 1.24999 8.17893 1.24999 10.25H3.74999ZM4.99999 9C5.69034 9 6.24999 9.55964 6.24999 10.25H8.74999C8.74999 8.17893 7.07105 6.5 4.99999 6.5V9ZM26.25 10.25C26.25 10.9404 25.6903 11.5 25 11.5V14C27.0711 14 28.75 12.3211 28.75 10.25H26.25ZM25 11.5C24.3096 11.5 23.75 10.9404 23.75 10.25H21.25C21.25 12.3211 22.9289 14 25 14V11.5ZM23.75 10.25C23.75 9.55964 24.3096 9 25 9V6.5C22.9289 6.5 21.25 8.17893 21.25 10.25H23.75ZM25 9C25.6903 9 26.25 9.55964 26.25 10.25H28.75C28.75 8.17893 27.0711 6.5 25 6.5V9ZM4.99999 15.25H4.61749V17.75H4.99999V15.25ZM4.61764 15.25C3.72994 15.2499 2.87099 15.5647 2.19359 16.1384L3.80932 18.0461C4.03512 17.8549 4.32143 17.75 4.61733 17.75L4.61764 15.25ZM2.19359 16.1384C1.5162 16.7121 1.06429 17.5075 0.918264 18.3831L3.38421 18.7944C3.43288 18.5025 3.58352 18.2374 3.80932 18.0461L2.19359 16.1384ZM0.918209 18.3834L0.501959 20.8834L2.96801 21.294L3.38426 18.794L0.918209 18.3834ZM0.502014 20.8831C0.412412 21.4204 0.440928 21.9707 0.585581 22.4959L2.99581 21.832C2.94759 21.6569 2.93809 21.4735 2.96796 21.2944L0.502014 20.8831ZM0.585581 22.4959C0.730234 23.021 0.98755 23.5083 1.33963 23.9239L3.24716 22.308C3.1298 22.1694 3.04403 22.007 2.99581 21.832L0.585581 22.4959ZM1.33963 23.9239C1.69171 24.3395 2.1301 24.6735 2.62431 24.9025L3.67539 22.6342C3.51066 22.5578 3.36452 22.4465 3.24716 22.308L1.33963 23.9239ZM2.62431 24.9025C3.11853 25.1315 3.6567 25.2501 4.20139 25.25L4.20108 22.75C4.01952 22.75 3.84013 22.7105 3.67539 22.6342L2.62431 24.9025ZM4.20124 25.25H8.74999V22.75H4.20124V25.25ZM25 17.75H25.3825V15.25H25V17.75ZM25.3826 17.75C25.6785 17.75 25.9649 17.8549 26.1907 18.0461L27.8064 16.1384C27.129 15.5647 26.27 15.2499 25.3823 15.25L25.3826 17.75ZM26.1907 18.0461C26.4165 18.2374 26.5671 18.5025 26.6158 18.7944L29.0817 18.3831C28.9357 17.5075 28.4838 16.7121 27.8064 16.1384L26.1907 18.0461ZM26.6157 18.794L27.032 21.294L29.498 20.8834L29.0818 18.3834L26.6157 18.794ZM27.032 21.2944C27.0619 21.4735 27.0524 21.6569 27.0042 21.832L29.4144 22.4959C29.559 21.9707 29.5876 21.4204 29.498 20.8831L27.032 21.2944ZM27.0042 21.832C26.9559 22.007 26.8702 22.1694 26.7528 22.308L28.6603 23.9239C29.0124 23.5083 29.2697 23.021 29.4144 22.4959L27.0042 21.832ZM26.7528 22.308C26.6354 22.4465 26.4893 22.5578 26.3246 22.6342L27.3757 24.9025C27.8699 24.6735 28.3083 24.3395 28.6603 23.9239L26.7528 22.308ZM26.3246 22.6342C26.1598 22.7105 25.9805 22.75 25.7989 22.75L25.7986 25.25C26.3433 25.2501 26.8814 25.1315 27.3757 24.9025L26.3246 22.6342ZM25.7987 22.75H21.25V25.25H25.7987V22.75Z" fill="#4E4E4E"/>
</svg>
