<svg width="30" height="28" viewBox="0 0 30 28" fill="none" xmlns="http://www.w3.org/2000/svg">
<path d="M20.899 23.69L19.6586 23.8449L19.6586 23.845L20.899 23.69ZM20.099 17.285L21.3393 17.1301L21.3393 17.13L20.099 17.285ZM16.3765 14V15.25H16.377L16.3765 14ZM13.6215 14V12.75H13.6211L13.6215 14ZM9.90148 17.285L11.1418 17.4402L11.1418 17.44L9.90148 17.285ZM9.10023 23.69L7.8599 23.5348L7.85988 23.535L9.10023 23.69ZM11.5827 26.5V25.25H11.5818L11.5827 26.5ZM18.4177 26.5L18.418 25.25H18.4177V26.5ZM5.00023 17.75C5.69059 17.75 6.25023 17.1904 6.25023 16.5C6.25023 15.8096 5.69059 15.25 5.00023 15.25V17.75ZM4.61773 16.5L4.61758 17.75H4.61773V16.5ZM2.15148 18.5887L0.918508 18.3831L0.918454 18.3834L2.15148 18.5887ZM1.73523 21.0887L2.9682 21.2944L2.96826 21.294L1.73523 21.0887ZM4.20148 24V22.75H4.20133L4.20148 24ZM8.75023 25.25C9.44059 25.25 10.0002 24.6904 10.0002 24C10.0002 23.3096 9.44059 22.75 8.75023 22.75V25.25ZM25.0002 15.25C24.3099 15.25 23.7502 15.8096 23.7502 16.5C23.7502 17.1904 24.3099 17.75 25.0002 17.75V15.25ZM25.3827 16.5V17.75H25.3829L25.3827 16.5ZM27.849 18.5887L29.082 18.3834L29.0819 18.3831L27.849 18.5887ZM28.2652 21.0887L27.0322 21.294L27.0323 21.2944L28.2652 21.0887ZM25.799 24L25.7991 22.75H25.799V24ZM21.2502 22.75C20.5599 22.75 20.0002 23.3096 20.0002 24C20.0002 24.6904 20.5599 25.25 21.2502 25.25V22.75ZM22.1393 23.5351L21.3393 17.1301L18.8586 17.4399L19.6586 23.8449L22.1393 23.5351ZM21.3393 17.13C21.1882 15.9204 20.6003 14.8076 19.6863 14.001L18.0321 15.8755C18.4891 16.2788 18.783 16.8352 18.8586 17.44L21.3393 17.13ZM19.6863 14.001C18.7723 13.1944 17.595 12.7495 16.376 12.75L16.377 15.25C16.9865 15.2498 17.5751 15.4722 18.0321 15.8755L19.6863 14.001ZM16.3765 12.75H13.6215V15.25H16.3765V12.75ZM13.6211 12.75C12.4027 12.7503 11.2263 13.1956 10.3129 14.0021L11.9677 15.8761C12.4244 15.4728 13.0126 15.2502 13.6218 15.25L13.6211 12.75ZM10.3129 14.0021C9.3996 14.8087 8.81222 15.9209 8.66113 17.13L11.1418 17.44C11.2174 16.8355 11.5111 16.2793 11.9677 15.8761L10.3129 14.0021ZM8.66115 17.1298L7.8599 23.5348L10.3406 23.8452L11.1418 17.4402L8.66115 17.1298ZM7.85988 23.535C7.79392 24.0628 7.84101 24.5987 7.99802 25.1069L10.3866 24.369C10.3343 24.1996 10.3186 24.0209 10.3406 23.845L7.85988 23.535ZM7.99802 25.1069C8.15504 25.6151 8.41838 26.0842 8.77058 26.4828L10.6441 24.8276C10.5268 24.6947 10.439 24.5384 10.3866 24.369L7.99802 25.1069ZM8.77058 26.4828C9.12277 26.8815 9.55574 27.2006 10.0407 27.4191L11.0675 25.1397C10.9059 25.0669 10.7615 24.9605 10.6441 24.8276L8.77058 26.4828ZM10.0407 27.4191C10.5257 27.6376 11.0517 27.7504 11.5836 27.75L11.5818 25.25C11.4045 25.2501 11.2292 25.2125 11.0675 25.1397L10.0407 27.4191ZM11.5827 27.75H18.4177V25.25H11.5827V27.75ZM18.4175 27.75C18.9492 27.7501 19.475 27.6371 19.9597 27.4185L18.9321 25.1395C18.7705 25.2124 18.5953 25.25 18.418 25.25L18.4175 27.75ZM19.9597 27.4185C20.4445 27.1999 20.8773 26.8807 21.2293 26.4821L19.3553 24.8274C19.2379 24.9602 19.0937 25.0666 18.9321 25.1395L19.9597 27.4185ZM21.2293 26.4821C21.5812 26.0835 21.8444 25.6146 22.0013 25.1065L19.6126 24.3688C19.5603 24.5382 19.4726 24.6945 19.3553 24.8274L21.2293 26.4821ZM22.0013 25.1065C22.1582 24.5983 22.2053 24.0627 22.1393 23.535L19.6586 23.845C19.6806 24.0209 19.6649 24.1994 19.6126 24.3688L22.0013 25.1065ZM17.5002 5.25C17.5002 6.63071 16.3809 7.75 15.0002 7.75V10.25C17.7617 10.25 20.0002 8.01142 20.0002 5.25H17.5002ZM15.0002 7.75C13.6195 7.75 12.5002 6.63071 12.5002 5.25H10.0002C10.0002 8.01142 12.2388 10.25 15.0002 10.25V7.75ZM12.5002 5.25C12.5002 3.86929 13.6195 2.75 15.0002 2.75V0.25C12.2388 0.25 10.0002 2.48858 10.0002 5.25H12.5002ZM15.0002 2.75C16.3809 2.75 17.5002 3.86929 17.5002 5.25H20.0002C20.0002 2.48858 17.7617 0.25 15.0002 0.25V2.75ZM6.25023 10.25C6.25023 10.9404 5.69059 11.5 5.00023 11.5V14C7.0713 14 8.75023 12.3211 8.75023 10.25H6.25023ZM5.00023 11.5C4.30987 11.5 3.75023 10.9404 3.75023 10.25H1.25023C1.25023 12.3211 2.92916 14 5.00023 14V11.5ZM3.75023 10.25C3.75023 9.55964 4.30987 9 5.00023 9V6.5C2.92916 6.5 1.25023 8.17893 1.25023 10.25H3.75023ZM5.00023 9C5.69059 9 6.25023 9.55964 6.25023 10.25H8.75023C8.75023 8.17893 7.0713 6.5 5.00023 6.5V9ZM26.2502 10.25C26.2502 10.9404 25.6906 11.5 25.0002 11.5V14C27.0713 14 28.7502 12.3211 28.7502 10.25H26.2502ZM25.0002 11.5C24.3099 11.5 23.7502 10.9404 23.7502 10.25H21.2502C21.2502 12.3211 22.9292 14 25.0002 14V11.5ZM23.7502 10.25C23.7502 9.55964 24.3099 9 25.0002 9V6.5C22.9292 6.5 21.2502 8.17893 21.2502 10.25H23.7502ZM25.0002 9C25.6906 9 26.2502 9.55964 26.2502 10.25H28.7502C28.7502 8.17893 27.0713 6.5 25.0002 6.5V9ZM5.00023 15.25H4.61773V17.75H5.00023V15.25ZM4.61788 15.25C3.73019 15.2499 2.87123 15.5647 2.19384 16.1384L3.80956 18.0461C4.03536 17.8549 4.32168 17.75 4.61758 17.75L4.61788 15.25ZM2.19384 16.1384C1.51644 16.7121 1.06453 17.5075 0.918508 18.3831L3.38445 18.7944C3.43313 18.5025 3.58376 18.2374 3.80956 18.0461L2.19384 16.1384ZM0.918454 18.3834L0.502204 20.8834L2.96826 21.294L3.3845 18.794L0.918454 18.3834ZM0.502258 20.8831C0.412656 21.4204 0.441173 21.9707 0.585825 22.4959L2.99606 21.832C2.94784 21.6569 2.93833 21.4735 2.9682 21.2944L0.502258 20.8831ZM0.585825 22.4959C0.730478 23.021 0.987794 23.5083 1.33987 23.9239L3.24741 22.308C3.13004 22.1694 3.04427 22.007 2.99606 21.832L0.585825 22.4959ZM1.33987 23.9239C1.69195 24.3395 2.13034 24.6735 2.62456 24.9025L3.67563 22.6342C3.5109 22.5578 3.36477 22.4465 3.24741 22.308L1.33987 23.9239ZM2.62456 24.9025C3.11877 25.1315 3.65694 25.2501 4.20163 25.25L4.20133 22.75C4.01976 22.75 3.84037 22.7105 3.67563 22.6342L2.62456 24.9025ZM4.20148 25.25H8.75023V22.75H4.20148V25.25ZM25.0002 17.75H25.3827V15.25H25.0002V17.75ZM25.3829 17.75C25.6788 17.75 25.9651 17.8549 26.1909 18.0461L27.8066 16.1384C27.1292 15.5647 26.2703 15.2499 25.3826 15.25L25.3829 17.75ZM26.1909 18.0461C26.4167 18.2374 26.5673 18.5025 26.616 18.7944L29.0819 18.3831C28.9359 17.5075 28.484 16.7121 27.8066 16.1384L26.1909 18.0461ZM26.616 18.794L27.0322 21.294L29.4983 20.8834L29.082 18.3834L26.616 18.794ZM27.0323 21.2944C27.0621 21.4735 27.0526 21.6569 27.0044 21.832L29.4146 22.4959C29.5593 21.9707 29.5878 21.4204 29.4982 20.8831L27.0323 21.2944ZM27.0044 21.832C26.9562 22.007 26.8704 22.1694 26.7531 22.308L28.6606 23.9239C29.0127 23.5083 29.27 23.021 29.4146 22.4959L27.0044 21.832ZM26.7531 22.308C26.6357 22.4465 26.4896 22.5578 26.3248 22.6342L27.3759 24.9025C27.8701 24.6735 28.3085 24.3395 28.6606 23.9239L26.7531 22.308ZM26.3248 22.6342C26.1601 22.7105 25.9807 22.75 25.7991 22.75L25.7988 25.25C26.3435 25.2501 26.8817 25.1315 27.3759 24.9025L26.3248 22.6342ZM25.799 22.75H21.2502V25.25H25.799V22.75Z" fill="#FFB43A"/>
</svg>
